<?xml version="1.0" standalone="no"?>
<!DOCTYPE svg PUBLIC "-//W3C//DTD SVG 20010904//EN"
 "http://www.w3.org/TR/2001/REC-SVG-20010904/DTD/svg10.dtd">
<svg version="1.0" xmlns="http://www.w3.org/2000/svg"
 width="930.000000pt" height="203.000000pt" viewBox="0 0 930.000000 203.000000"
 preserveAspectRatio="xMidYMid meet">

<g transform="translate(0.000000,203.000000) scale(0.100000,-0.100000)"
fill="#000000" stroke="none">
<path d="M2370 1010 c0 -1003 0 -1010 20 -1010 20 0 20 7 20 1010 0 1003 0
1010 -20 1010 -20 0 -20 -7 -20 -1010z"/>
<path d="M285 1828 c-5 -22 -275 -1655 -275 -1664 0 -2 57 -4 128 -4 l128 0
23 163 c13 89 25 174 28 190 l6 28 136 -3 136 -3 17 -120 c10 -66 23 -150 29
-187 l11 -68 129 0 c71 0 129 2 129 5 0 10 -270 1640 -275 1663 -5 22 -7 22
-175 22 -168 0 -170 0 -175 -22z m225 -699 c27 -184 50 -337 50 -341 0 -5 -45
-8 -100 -8 -88 0 -100 2 -100 18 -1 26 94 671 98 667 2 -2 25 -153 52 -336z"/>
<path d="M1325 1828 c-5 -22 -275 -1655 -275 -1664 0 -2 57 -4 128 -4 l128 0
23 163 c13 89 25 174 28 190 l6 28 136 -3 136 -3 17 -120 c10 -66 23 -150 29
-187 l11 -68 129 0 c71 0 129 2 129 5 0 10 -270 1640 -275 1663 -5 22 -7 22
-175 22 -168 0 -170 0 -175 -22z m225 -699 c27 -184 50 -337 50 -341 0 -5 -45
-8 -100 -8 -88 0 -100 2 -100 18 -1 26 94 671 98 667 2 -2 25 -153 52 -336z"/>
<path d="M3718 1794 c-39 -21 -61 -68 -60 -132 0 -63 20 -97 114 -196 64 -68
76 -87 77 -118 1 -24 -34 -58 -59 -58 -28 0 -60 35 -60 65 0 21 -5 25 -27 25
-45 0 -57 -13 -50 -53 15 -96 107 -142 202 -103 66 28 94 120 61 200 -8 19
-45 67 -84 107 -79 84 -92 105 -92 149 0 23 6 33 26 42 33 15 56 2 68 -41 8
-28 13 -31 47 -31 35 0 39 3 39 25 0 43 -27 94 -62 115 -39 24 -101 26 -140 4z"/>
<path d="M2976 1788 c-3 -7 -23 -125 -45 -263 -23 -137 -44 -262 -47 -277 -5
-27 -4 -28 39 -28 l45 0 9 63 8 62 44 3 c52 4 57 -2 66 -75 l6 -53 45 0 45 0
-6 33 c-3 17 -25 147 -48 287 l-43 255 -57 3 c-40 2 -58 -1 -61 -10z m73 -210
c7 -46 14 -98 18 -115 5 -32 4 -33 -31 -33 -42 0 -40 -6 -21 120 8 52 15 98
15 103 0 4 2 7 4 7 2 0 9 -37 15 -82z"/>
<path d="M4410 1510 l0 -290 40 0 40 0 0 290 0 290 -40 0 -40 0 0 -290z"/>
<path d="M5056 1788 c-3 -7 -23 -125 -45 -263 -23 -137 -44 -262 -47 -277 -5
-27 -4 -28 39 -28 l45 0 9 63 8 62 44 3 c52 4 57 -2 66 -75 l6 -53 45 0 45 0
-6 33 c-3 17 -25 147 -48 287 l-43 255 -57 3 c-40 2 -58 -1 -61 -10z m73 -210
c7 -46 14 -98 18 -115 5 -32 4 -33 -31 -33 -42 0 -40 -6 -21 120 8 52 15 98
15 103 0 4 2 7 4 7 2 0 9 -37 15 -82z"/>
<path d="M5740 1510 l0 -290 40 0 40 0 2 183 3 182 56 -180 56 -180 46 -3 47
-3 0 290 0 291 -40 0 -40 0 0 -187 c0 -104 -4 -182 -9 -175 -4 7 -30 91 -57
187 l-49 175 -47 0 -48 0 0 -290z"/>
<path d="M8338 794 c-39 -21 -61 -68 -60 -132 0 -63 20 -97 114 -196 64 -68
76 -87 77 -118 1 -24 -34 -58 -59 -58 -28 0 -60 35 -60 65 0 21 -5 25 -27 25
-45 0 -57 -13 -50 -53 15 -96 107 -142 202 -103 66 28 94 120 61 200 -8 19
-45 67 -84 107 -79 84 -92 105 -92 149 0 23 6 33 26 42 33 15 56 2 68 -41 8
-28 13 -31 47 -31 35 0 39 3 39 25 0 43 -27 94 -62 115 -39 24 -101 26 -140 4z"/>
<path d="M9078 794 c-39 -21 -61 -68 -60 -132 0 -63 20 -97 114 -196 64 -68
76 -87 77 -118 1 -24 -34 -58 -59 -58 -28 0 -60 35 -60 65 0 21 -5 25 -27 25
-45 0 -57 -13 -50 -53 15 -96 107 -142 202 -103 66 28 94 120 61 200 -8 19
-45 67 -84 107 -79 84 -92 105 -92 149 0 23 6 33 26 42 33 15 56 2 68 -41 8
-28 13 -31 47 -31 35 0 39 3 39 25 0 43 -27 94 -62 115 -39 24 -101 26 -140 4z"/>
<path d="M2976 788 c-3 -7 -23 -125 -45 -263 -23 -137 -44 -262 -47 -278 -5
-26 -4 -27 39 -27 l45 0 9 63 8 62 44 3 c52 4 57 -2 66 -75 l6 -53 45 0 45 0
-6 33 c-3 17 -25 147 -48 287 l-43 255 -57 3 c-40 2 -58 -1 -61 -10z m73 -210
c7 -46 14 -98 18 -115 5 -32 4 -33 -31 -33 -42 0 -40 -6 -21 120 8 52 15 98
15 103 0 4 2 7 4 7 2 0 9 -37 15 -82z"/>
<path d="M3625 778 c2 -13 20 -133 40 -268 47 -324 36 -292 93 -288 l47 3 20
172 c12 95 23 175 26 177 3 3 13 -65 23 -152 24 -216 19 -202 75 -202 l46 0
39 263 c21 144 40 274 43 290 5 26 4 27 -39 27 l-44 0 -18 -147 c-20 -171 -28
-225 -31 -221 -2 2 -13 85 -26 186 l-22 182 -43 0 c-32 0 -44 -4 -48 -17 -2
-10 -12 -88 -22 -173 -9 -85 -20 -161 -24 -168 -3 -7 -14 58 -24 145 -26 229
-20 213 -72 213 -41 0 -44 -2 -39 -22z"/>
<path d="M4596 788 c-3 -7 -23 -125 -45 -263 -23 -137 -44 -262 -47 -278 -5
-26 -4 -27 39 -27 l45 0 9 63 8 62 44 3 c52 4 57 -2 66 -75 l6 -53 45 0 45 0
-6 33 c-3 17 -25 147 -48 287 l-43 255 -57 3 c-40 2 -58 -1 -61 -10z m73 -210
c7 -46 14 -98 18 -115 5 -32 4 -33 -31 -33 -42 0 -40 -6 -21 120 8 52 15 98
15 103 0 4 2 7 4 7 2 0 9 -37 15 -82z"/>
<path d="M5280 510 l0 -290 40 0 40 0 0 121 0 120 27 -3 c25 -3 28 -10 57
-120 l30 -118 47 0 47 0 -38 130 c-36 123 -37 130 -20 145 32 29 42 71 39 154
-3 61 -8 84 -24 101 -32 36 -78 50 -165 50 l-80 0 0 -290z m166 196 c15 -12
19 -27 19 -75 0 -33 -5 -65 -12 -72 -6 -6 -29 -12 -50 -13 l-38 -1 -3 74 c-2
41 -1 80 2 88 7 17 57 17 82 -1z"/>
<path d="M6050 510 l0 -290 125 0 125 0 0 40 0 39 -82 3 -83 3 0 85 0 85 63 3
62 3 0 39 0 40 -65 0 -66 0 3 78 3 77 83 3 82 3 0 39 0 40 -125 0 -125 0 0
-290z"/>
<path d="M6770 510 l0 -290 40 0 40 0 2 183 3 182 56 -180 56 -180 46 -3 47
-3 0 290 0 291 -40 0 -40 0 0 -187 c0 -104 -4 -182 -9 -175 -4 7 -30 91 -57
187 l-49 175 -47 0 -48 0 0 -290z"/>
<path d="M7560 510 l0 -290 125 0 125 0 0 40 0 39 -82 3 -83 3 0 85 0 85 63 3
62 3 0 39 0 40 -65 0 -66 0 3 78 3 77 83 3 82 3 0 39 0 40 -125 0 -125 0 0
-290z"/>
</g>
</svg>
